<svg width="225" height="236" viewBox="0 0 225 236" fill="none" xmlns="http://www.w3.org/2000/svg">
<rect width="225" height="236" rx="40" fill="#27251D"/>
<path d="M88 57C104.5 57 121 57 138 57C139.708 63.831 141.313 70.3245 142.508 77.2046C143.397 82.2574 144.427 87.2828 145.438 92.3125C145.657 93.409 145.877 94.5055 146.103 95.6353C147.452 102.351 148.839 109.055 150.324 115.742C150.902 118.528 151.426 121.313 151.93 124.113C153.024 130.195 154.221 136.254 155.438 142.312C155.656 143.408 155.875 144.504 156.101 145.633C157.456 152.39 158.868 159.126 160.422 165.84C161.217 170.186 161.56 174.604 162 179C129.66 179 97.32 179 64 179C65.2449 170.286 66.5397 161.905 68.5 153.375C70.0391 146.622 71.3875 139.887 72.4907 133.049C73.3568 127.864 74.3981 122.715 75.4375 117.562C75.657 116.469 75.8766 115.375 76.1028 114.248C77.4312 107.676 78.8401 101.137 80.3867 94.6133C81.6873 89.0712 82.7457 83.4907 83.7188 77.8828C83.8477 77.1413 83.9766 76.3997 84.1094 75.6357C84.3625 74.1708 84.6127 72.7053 84.8594 71.2393C84.978 70.5493 85.0966 69.8593 85.2188 69.1484C85.3212 68.5418 85.4237 67.9351 85.5293 67.3101C86.2349 63.8472 87.1429 60.4285 88 57Z" fill="#FCF8F1"/>
</svg>
