<svg width="236" height="236" viewBox="0 0 236 236" fill="none" xmlns="http://www.w3.org/2000/svg">
  <rect width="236" height="236" rx="40" fill="#B8AEE0"/>
  <path d="M93.5 57C110 57 126.5 57 143.5 57C145.208 63.831 146.813 70.3245 148.008 77.2046C148.897 82.2574 149.927 87.2828 150.938 92.3125C151.157 93.409 151.377 94.5055 151.603 95.6353C152.952 102.351 154.339 109.055 155.824 115.742C156.402 118.528 156.926 121.313 157.43 124.113C158.524 130.195 159.721 136.254 160.938 142.312C161.156 143.408 161.375 144.504 161.601 145.633C162.956 152.39 164.368 159.126 165.922 165.84C166.717 170.186 167.06 174.604 167.5 179C135.16 179 102.82 179 69.5 179C70.7449 170.286 72.0397 161.905 74 153.375C75.5391 146.622 76.8875 139.887 77.9907 133.049C78.8568 127.864 79.8981 122.715 80.9375 117.562C81.157 116.469 81.3766 115.375 81.6028 114.248C82.9312 107.676 84.3401 101.137 85.8867 94.6133C87.1873 89.0712 88.2457 83.4907 89.2188 77.8828C89.3477 77.1413 89.4766 76.3997 89.6094 75.6357C89.8625 74.1708 90.1127 72.7053 90.3594 71.2393C90.478 70.5493 90.5966 69.8593 90.7188 69.1484C90.8212 68.5418 90.9237 67.9351 91.0293 67.3101C91.7349 63.8472 92.6429 60.4285 93.5 57Z" fill="#27251D"/>
</svg>
